<svg version="1.1" id="Layer_1" xmlns="http://www.w3.org/2000/svg" xmlns:xlink="http://www.w3.org/1999/xlink" x="0px" y="0px"
	 width="100%" viewBox="0 0 1080 1080" enable-background="new 0 0 1080 1080" xml:space="preserve">
<path fill="#FFFFFF" opacity="1.000000" stroke="none" 
	d="
M605.000000,1081.000000 
	C404.856384,1081.000000 205.212753,1080.989014 5.569163,1081.085693 
	C1.948285,1081.087402 0.895119,1080.478271 0.896341,1076.570190 
	C1.007984,719.611389 1.009679,362.652557 0.882420,5.693789 
	C0.880932,1.521176 1.867744,0.896071 5.805188,0.897293 
	C362.597321,1.007972 719.389465,1.007772 1076.181641,0.899176 
	C1080.091553,0.897986 1081.120850,1.479758 1081.119263,5.680573 
	C1080.990234,362.472687 1080.989258,719.264832 1081.122803,1076.057007 
	C1081.124512,1080.439331 1080.024536,1081.103760 1075.944092,1081.100708 
	C919.129456,1080.981934 762.314758,1081.000000 605.000000,1081.000000 
z"/>
<path fill="#020202" opacity="1.000000" stroke="none" 
	d="
M578.634277,163.132782 
	C596.145935,167.477432 613.253540,171.643890 630.306030,176.024597 
	C645.838074,180.014725 659.519653,187.342285 669.473450,200.211563 
	C683.890320,218.851044 684.648682,239.410797 676.254028,260.589661 
	C668.152100,281.029694 652.572083,292.395172 631.061829,296.117920 
	C616.674194,298.608002 602.953796,295.305115 589.206055,291.873871 
	C575.991394,288.575653 562.800964,285.170868 549.531860,282.107330 
	C546.112610,281.317871 545.393250,280.127228 546.228577,276.790192 
	C555.424377,240.053680 564.504700,203.288193 573.556885,166.515930 
	C574.201172,163.898712 574.523621,161.359467 578.634277,163.132782 
z"/>
<path fill="#020202" opacity="1.000000" stroke="none" 
	d="
M835.647705,724.659912 
	C833.258850,727.679321 830.916504,730.305298 828.992371,733.208435 
	C827.134521,736.011536 825.450867,736.744141 822.891846,734.081543 
	C821.669373,732.809509 820.097961,731.872742 817.871765,730.158020 
	C819.961975,745.706665 813.550537,757.095032 803.376648,766.706177 
	C794.966980,774.650574 784.838501,778.920715 773.162109,778.987305 
	C747.924072,779.131287 724.339111,757.682800 722.408447,732.485168 
	C720.850586,712.153503 736.428101,688.262390 757.962280,685.508362 
	C758.177917,683.557251 756.371521,683.151367 755.334839,682.323242 
	C746.104797,674.950073 736.850220,667.605713 727.491211,660.397766 
	C725.526062,658.884277 725.034119,657.916565 726.788879,655.819885 
	C731.165405,650.590576 735.532166,645.319824 739.428162,639.734558 
	C741.644653,636.557068 742.982788,637.761658 745.165283,639.489502 
	C770.081909,659.215393 795.058044,678.865845 820.017456,698.537598 
	C826.420715,703.584290 832.710083,708.785767 839.276428,713.610352 
	C841.966980,715.587219 842.176514,717.023926 839.926270,719.322693 
	C838.421814,720.859558 837.216431,722.689148 835.647705,724.659912 
z"/>
<path fill="#030303" opacity="1.000000" stroke="none" 
	d="
M164.983994,548.981079 
	C164.835388,535.849060 167.018997,523.685242 172.198563,512.083191 
	C173.443008,509.295624 174.735153,508.385742 177.837326,509.771790 
	C182.371613,511.797760 187.110397,513.436096 191.879059,514.843079 
	C195.114365,515.797668 195.913818,516.671265 194.263443,520.139282 
	C188.249573,532.776489 186.120804,546.077576 188.916733,559.970093 
	C189.480927,562.773499 190.469299,565.398743 192.114456,567.747009 
	C194.923523,571.756653 198.684494,573.720825 203.664505,573.129761 
	C208.277573,572.582275 210.512634,569.448547 212.023346,565.538818 
	C215.644226,556.168030 216.553589,546.143005 219.003220,536.490540 
	C220.309235,531.344482 221.525314,526.132019 223.390228,521.178528 
	C233.986923,493.032379 265.543945,496.176636 278.522491,511.621552 
	C287.160065,521.900574 290.493835,534.034180 291.386841,547.077881 
	C292.579926,564.504395 290.038361,581.222717 281.992676,596.926025 
	C280.496643,599.846008 279.077545,601.138062 275.556824,599.340515 
	C270.844849,596.934692 265.823425,595.071899 260.805847,593.352478 
	C257.997192,592.390015 258.254486,591.424866 259.488983,589.203186 
	C267.494385,574.796021 270.726135,559.452454 268.034454,543.038940 
	C267.463684,539.558594 266.440948,536.239319 264.396759,533.321960 
	C259.388550,526.174438 250.883148,526.372498 246.469360,533.870300 
	C242.416504,540.755127 241.689499,548.670959 240.058197,556.283447 
	C238.421661,563.920288 236.936264,571.597168 234.268051,578.958862 
	C230.155212,590.306274 223.053223,598.744141 210.578796,600.782288 
	C197.355209,602.942932 185.739746,599.518188 177.055115,588.772522 
	C167.804489,577.326599 165.310638,563.709656 164.983994,548.981079 
z"/>
<path fill="#030303" opacity="1.000000" stroke="none" 
	d="
M375.031677,194.939285 
	C374.821747,193.845062 374.898926,193.212021 375.670349,192.942001 
	C383.189636,190.309891 390.706696,187.671173 398.237213,185.071533 
	C401.226440,184.039627 401.022949,186.742981 401.530640,188.203033 
	C407.745209,206.074310 413.867157,223.977798 420.028320,241.867691 
	C421.310730,245.591400 422.655273,249.293732 424.188385,253.618668 
	C432.256958,238.194016 440.009796,223.514847 447.589752,208.746979 
	C448.899078,206.195984 450.504974,204.704666 453.279938,203.812820 
	C461.956146,201.024414 470.528992,197.914413 479.406433,194.837341 
	C479.809906,196.450394 478.887909,197.438187 478.394867,198.476135 
	C471.627869,212.721725 464.929565,227.001648 457.962921,241.149307 
	C456.454407,244.212723 456.945709,245.557495 459.775818,247.346817 
	C476.356506,257.829956 492.808502,268.517181 509.265472,279.194702 
	C510.606995,280.065094 512.302795,280.582672 513.332581,282.606812 
	C503.619232,285.976044 494.003632,289.277161 484.418457,292.664246 
	C482.429352,293.367126 481.279022,292.021698 479.939392,291.183716 
	C468.807007,284.220032 457.647217,277.297211 446.627258,270.158905 
	C443.829132,268.346405 442.825226,268.407013 440.824585,271.530701 
	C435.378265,280.034210 434.631287,288.101990 438.908844,297.518768 
	C443.077087,306.694885 442.381012,307.013214 432.621124,310.394226 
	C428.701080,311.752167 424.651489,312.823029 420.892395,314.533356 
	C417.378906,316.131897 416.220154,315.075745 415.059418,311.661896 
	C402.824036,275.675323 390.420288,239.745972 378.060516,203.801697 
	C377.088715,200.975586 376.097992,198.155991 375.031677,194.939285 
z"/>
<path fill="#030303" opacity="1.000000" stroke="none" 
	d="
M385.743927,873.589050 
	C386.779968,870.189636 387.922211,867.216370 388.540192,864.137756 
	C389.181030,860.945435 390.492188,860.800842 393.376617,861.701782 
	C411.287445,867.295959 429.306396,872.545105 447.200775,878.189941 
	C450.504913,879.232361 451.383026,878.553955 452.227112,875.412659 
	C454.251251,867.879944 456.492859,860.385681 459.107391,853.039917 
	C460.413177,849.371094 459.742493,848.019226 455.970001,846.925110 
	C440.660767,842.484924 425.478668,837.607239 410.177094,833.139465 
	C407.053802,832.227478 406.212280,831.126892 407.322968,828.044983 
	C408.897400,823.676086 410.410004,819.239685 411.373322,814.709717 
	C412.207764,810.785767 413.779755,810.267273 417.438354,811.429016 
	C432.472595,816.203003 447.645508,820.541199 462.669067,825.347107 
	C466.231628,826.486633 467.426300,825.927856 468.451477,822.286316 
	C471.690582,810.780823 475.590820,799.459778 478.748688,787.934021 
	C479.767761,784.214539 481.278564,784.228149 484.200714,785.178833 
	C490.673492,787.284973 497.197388,789.238647 503.729614,791.155090 
	C506.079742,791.844543 507.149628,792.462463 506.213684,795.492676 
	C494.844666,832.300659 483.643738,869.160767 472.519470,906.043701 
	C471.668732,908.864319 470.725464,909.115356 468.021118,908.278503 
	C440.895050,899.884155 413.733612,891.601685 386.522278,883.488403 
	C383.422150,882.564148 382.940033,881.360474 384.062622,878.695984 
	C384.704620,877.172119 385.108643,875.547913 385.743927,873.589050 
z"/>
<path fill="#030303" opacity="1.000000" stroke="none" 
	d="
M859.826172,429.143311 
	C883.007202,447.845367 887.314575,482.055084 869.306885,502.662140 
	C861.038818,512.123779 850.248901,516.771790 838.106262,518.854370 
	C835.414062,519.316101 835.241516,517.818970 834.775757,515.857056 
	C829.905090,495.341309 824.940857,474.847809 819.992798,454.350494 
	C819.682129,453.063751 819.290100,451.796600 818.931580,450.504578 
	C808.995911,454.613892 803.914307,465.691437 806.324463,477.999512 
	C808.034363,486.731354 811.529480,494.514648 819.093384,499.785767 
	C820.951416,501.080627 820.913818,502.013062 819.735107,503.683411 
	C816.861145,507.756165 813.954285,511.827728 811.429810,516.117065 
	C809.866394,518.773560 808.665588,518.968750 806.113342,517.273499 
	C796.974609,511.203400 791.322876,502.676208 787.760376,492.522980 
	C783.007874,478.978668 781.622986,465.256683 786.285095,451.451385 
	C796.263245,421.904846 832.972717,410.686188 859.826172,429.143311 
z"/>
<path fill="#030303" opacity="1.000000" stroke="none" 
	d="
M642.027893,781.098022 
	C653.999878,757.414246 684.412598,742.785400 707.952454,749.496216 
	C726.483337,754.779053 737.447815,767.871216 741.706848,786.085388 
	C746.032898,804.586365 739.752380,820.280579 725.618774,832.623169 
	C707.230835,848.680908 682.752563,850.648315 664.959656,837.827148 
	C657.950378,832.776367 652.780212,826.170837 648.802368,818.487549 
	C647.285645,815.557983 647.841553,814.402466 650.566406,812.814636 
	C668.359741,802.446289 686.039246,791.882568 703.753784,781.378967 
	C705.170471,780.539001 706.569824,779.669861 708.250488,778.648132 
	C701.114929,771.492310 692.878784,769.758911 683.813416,772.605896 
	C673.197266,775.939880 664.871033,782.201599 660.933716,793.088074 
	C660.076965,795.457092 659.149536,796.034912 656.690491,795.115295 
	C652.658020,793.607178 648.525146,792.190125 644.310059,791.396667 
	C639.907654,790.567932 638.839478,788.630981 640.702209,784.717590 
	C641.198730,783.674438 641.517517,782.546570 642.027893,781.098022 
z"/>
<path fill="#030303" opacity="1.000000" stroke="none" 
	d="
M757.504761,335.429382 
	C755.189148,338.246429 754.002930,335.557068 752.867249,334.704498 
	C736.090637,322.110260 719.394165,309.409302 702.675964,296.737183 
	C701.762451,296.044708 700.825134,295.383514 699.550720,294.453705 
	C695.909302,301.235107 696.324341,307.830811 699.711548,313.992157 
	C706.209839,325.812378 716.345642,332.372009 729.992554,332.650146 
	C733.005066,332.711548 734.027405,333.217468 734.099304,336.348602 
	C734.209900,341.165466 734.748047,345.990570 735.414001,350.769073 
	C735.748535,353.169495 735.148376,353.917053 732.743408,354.232239 
	C727.189575,354.960144 721.690186,354.792664 716.436829,353.026794 
	C694.747681,345.736298 678.419312,332.313171 673.252686,309.368591 
	C665.336792,274.214783 700.340210,243.052719 734.569519,254.540421 
	C754.740051,261.309875 768.454041,274.924164 771.353088,296.927887 
	C773.306030,311.750824 767.458374,324.264832 757.504761,335.429382 
z"/>
<path fill="#020202" opacity="1.000000" stroke="none" 
	d="
M778.389709,624.404785 
	C780.157715,609.282654 785.269104,596.116150 796.432983,586.039612 
	C811.267944,572.649475 828.394470,570.313538 846.621094,577.559692 
	C864.682495,584.740051 874.375671,598.590942 876.102295,617.922974 
	C876.978943,627.738281 875.070740,637.130127 871.226746,646.164185 
	C861.366516,669.337952 839.482117,681.117065 816.008850,675.871338 
	C791.858337,670.474304 777.052124,650.426697 778.389709,624.404785 
z"/>
<path fill="#030303" opacity="1.000000" stroke="none" 
	d="
M326.705078,388.964966 
	C330.181458,405.442383 322.817047,422.889313 308.603516,432.347107 
	C298.362915,439.161224 286.728790,439.014740 276.909973,431.948120 
	C267.784424,425.380432 264.456665,415.008789 267.527313,403.091370 
	C270.277924,392.416168 276.572723,383.566345 282.132690,374.332001 
	C282.646881,373.477997 283.201660,372.648529 283.727997,371.801697 
	C287.922974,365.052307 287.282440,363.712738 279.311981,362.644287 
	C273.738159,361.897095 269.160736,363.967346 265.430023,367.926697 
	C257.289032,376.566620 253.540421,387.039215 253.393372,398.760010 
	C253.358322,401.552338 252.716583,402.192780 250.096756,401.892029 
	C245.468018,401.360748 240.813019,400.992004 236.158783,400.772644 
	C233.151123,400.630920 231.735321,399.716278 232.028152,396.330048 
	C233.872864,374.997925 242.009918,356.718323 258.677704,342.971039 
	C269.243896,334.256256 281.352051,333.502716 293.910187,338.578522 
	C301.515045,341.652313 308.155121,346.429749 315.096741,350.666534 
	C325.311646,356.901093 335.419037,363.314117 345.699707,369.437073 
	C348.345062,371.012573 348.637665,372.214783 346.937103,374.728821 
	C343.773865,379.405365 340.767487,384.210602 338.045258,389.154663 
	C336.286530,392.348969 334.589142,393.552826 331.490356,390.844727 
	C330.504425,389.983093 329.241364,389.438629 327.792694,388.608582 
	C327.184814,388.580994 326.884613,388.679565 326.705078,388.964966 
z"/>
<path fill="#030303" opacity="1.000000" stroke="none" 
	d="
M363.146698,732.500732 
	C385.234467,731.387512 404.497162,745.713257 408.453583,766.078613 
	C410.453735,776.374329 407.331848,785.711243 401.399994,793.810608 
	C391.476501,807.360168 380.930054,820.454285 370.609680,833.712036 
	C364.898895,841.048279 364.867065,841.021057 357.713562,835.391846 
	C353.921844,832.408020 350.255402,829.240662 346.284729,826.517212 
	C343.613373,824.685181 343.842987,823.419189 345.712219,821.092163 
	C354.777283,809.807068 363.666260,798.380432 372.595428,786.986511 
	C373.927765,785.286377 375.236847,783.554260 376.396027,781.734619 
	C382.420502,772.277771 381.812103,764.101624 374.653534,757.424500 
	C366.351898,749.681213 356.060028,748.815247 347.429565,755.155701 
	C344.042114,757.644409 341.361694,760.822327 338.784912,764.104919 
	C330.463776,774.705444 322.016144,785.209290 313.860657,795.935364 
	C311.816345,798.624084 310.507629,798.517090 308.150421,796.541504 
	C303.052094,792.268494 297.822540,788.140564 292.486755,784.168152 
	C290.431305,782.637817 290.154480,781.674622 291.833588,779.554138 
	C309.909424,756.726562 327.903778,733.834229 345.829926,710.888855 
	C347.499146,708.752258 348.582092,708.244995 350.839966,710.181885 
	C355.254974,713.969299 359.804504,717.638428 364.573792,720.961182 
	C367.898560,723.277527 368.684265,725.234375 365.385498,728.092651 
	C364.401886,728.944946 363.742615,730.171509 362.925232,731.573486 
	C362.890350,732.124817 362.864899,732.329224 363.146698,732.500732 
z"/>
<path fill="#030303" opacity="1.000000" stroke="none" 
	d="
M330.826080,262.806458 
	C343.417480,254.278961 356.445404,250.321930 371.186432,255.481827 
	C374.546936,256.658142 375.522766,258.029541 373.821655,261.460114 
	C371.466248,266.210083 369.512970,271.169861 367.584167,276.116486 
	C366.653778,278.502472 365.777405,279.345062 362.868744,278.580902 
	C351.829010,275.680603 342.120544,279.560425 335.965668,288.823730 
	C330.361786,297.257751 330.783875,307.288513 337.124939,316.372742 
	C347.726562,331.560638 365.163391,333.393829 377.076874,320.589203 
	C381.663635,315.659363 383.567169,309.782013 382.903412,303.178864 
	C382.643372,300.591461 383.480438,299.599426 385.886047,299.200195 
	C391.626923,298.247528 397.362122,297.240448 403.063477,296.078125 
	C405.992645,295.480957 406.779358,296.668701 407.104431,299.380402 
	C407.871857,305.782074 407.370117,311.963043 405.182678,318.050079 
	C396.604126,341.922058 367.257172,358.357666 343.316925,352.643799 
	C310.212250,344.742676 295.875977,306.431885 315.457794,278.174194 
	C319.578735,272.227448 324.709717,267.272308 330.826080,262.806458 
z"/>
<path fill="#030303" opacity="1.000000" stroke="none" 
	d="
M856.771362,390.366028 
	C859.428467,393.720764 860.318115,395.351318 854.894470,396.287506 
	C824.584717,401.519257 794.344666,407.158478 764.104797,412.787079 
	C760.713379,413.418304 758.679077,412.766479 756.853699,409.640961 
	C753.420105,403.762085 749.547302,398.134399 745.730530,392.487854 
	C744.586548,390.795471 744.240356,389.596802 745.547546,387.675354 
	C763.882568,360.724121 782.113403,333.702087 800.383484,306.706604 
	C800.554688,306.453613 800.912537,306.326874 801.545532,305.892761 
	C806.149780,312.920563 810.661377,319.996887 815.392578,326.923248 
	C817.000488,329.277222 815.490356,330.609100 814.394104,332.195282 
	C803.235046,348.341522 792.063171,364.478912 780.896362,380.619812 
	C779.965210,381.965851 779.044678,383.319305 777.441589,385.657684 
	C787.682983,383.821899 796.899719,382.188660 806.109009,380.514343 
	C817.886841,378.373077 829.683655,376.322449 841.417358,373.960297 
	C844.762085,373.286957 846.513855,374.209778 848.158020,377.077148 
	C850.717468,381.540802 853.743164,385.737091 856.771362,390.366028 
z"/>
<path fill="#030303" opacity="1.000000" stroke="none" 
	d="
M261.095276,487.966064 
	C249.277008,484.884308 237.829391,482.026337 226.506500,478.738800 
	C223.511230,477.869171 222.694748,478.802277 222.236008,481.278259 
	C222.205719,481.441711 222.162384,481.603699 222.112625,481.762451 
	C221.086212,485.037811 221.540390,490.014465 218.868622,491.178589 
	C216.339966,492.280396 212.300415,489.970917 208.941391,489.099945 
	C199.274826,486.593506 199.077072,486.522217 201.867447,477.029022 
	C203.014618,473.126129 201.782730,471.891815 198.215408,471.152191 
	C193.341797,470.141724 188.575851,468.622742 183.728943,467.467926 
	C181.605759,466.962067 180.653336,466.384247 181.428360,463.823944 
	C183.448502,457.150299 185.328217,450.415131 186.809128,443.605621 
	C187.502365,440.417999 189.023392,440.515015 191.379227,441.159241 
	C196.506927,442.561462 201.736938,443.647888 206.760284,445.349945 
	C209.489136,446.274597 210.234985,445.334534 210.806305,443.060547 
	C212.141998,437.744171 213.771835,432.492371 214.876740,427.130829 
	C215.532928,423.946625 216.832565,423.487640 219.691315,424.443115 
	C223.465408,425.704590 227.319839,426.984528 231.238510,427.488403 
	C235.993729,428.099823 236.244171,430.257629 234.930206,434.128540 
	C233.384705,438.681549 232.520493,443.464111 231.012466,448.032166 
	C229.971893,451.184235 231.338257,451.937378 234.016739,452.610535 
	C244.809814,455.322937 255.530334,458.324219 266.324036,461.033966 
	C277.390686,463.812347 284.759644,457.044220 282.583710,445.646423 
	C281.803711,441.560608 283.241180,441.245636 286.332550,441.067963 
	C290.318024,440.838928 294.328461,440.566681 298.251984,439.878540 
	C301.799408,439.256378 302.988190,440.675842 303.365326,443.943024 
	C305.017273,458.253998 301.784851,471.187897 291.739166,481.689514 
	C283.326385,490.484070 272.572174,490.575317 261.095276,487.966064 
z"/>
<path fill="#030303" opacity="1.000000" stroke="none" 
	d="
M886.998413,534.114990 
	C898.146729,534.416565 908.794312,534.818542 919.444763,534.923889 
	C922.335144,534.952515 923.118469,535.811768 922.950317,538.621216 
	C922.552734,545.264954 922.255737,551.928406 922.319458,558.580078 
	C922.350525,561.815063 921.214478,562.332764 918.269409,562.249573 
	C896.140869,561.624146 874.006409,561.214111 851.875610,560.664429 
	C833.738586,560.214050 815.606140,559.499207 797.467041,559.278931 
	C793.136536,559.226318 792.248108,557.952087 792.592773,553.911377 
	C793.100891,547.953735 793.121521,541.932312 792.959900,535.948608 
	C792.871033,532.656250 793.877014,531.791748 797.144592,531.895569 
	C819.769470,532.613953 842.400269,533.147278 865.029907,533.710205 
	C872.185059,533.888184 879.342407,533.975220 886.998413,534.114990 
z"/>
<path fill="#030303" opacity="1.000000" stroke="none" 
	d="
M215.716095,685.756104 
	C245.655319,670.891663 275.301208,656.276001 304.810699,641.390015 
	C308.693451,639.431335 310.102875,640.212158 311.682831,643.880859 
	C314.110748,649.518494 317.010101,654.958496 319.836792,660.416382 
	C320.978516,662.620850 321.330322,663.860779 318.455933,665.276001 
	C281.647461,683.398376 244.909531,701.664368 208.199646,719.985901 
	C205.853668,721.156860 204.880020,720.897400 203.767029,718.497742 
	C200.832748,712.171082 197.740784,705.907593 194.434937,699.767944 
	C193.066299,697.226135 193.991714,696.394653 196.152313,695.372131 
	C202.606918,692.317383 208.977112,689.084167 215.716095,685.756104 
z"/>
<path fill="#030303" opacity="1.000000" stroke="none" 
	d="
M295.117676,735.088257 
	C277.875885,747.607788 260.874054,759.851624 244.053787,772.340027 
	C241.042694,774.575684 239.700668,774.343079 237.693649,771.256470 
	C234.163757,765.827942 230.213623,760.663818 226.277435,755.512756 
	C224.731491,753.489624 224.761200,752.435181 226.980591,750.829407 
	C260.254303,726.755310 293.465790,702.595032 326.636841,678.379517 
	C328.728577,676.852478 329.757538,676.892700 331.268097,679.107483 
	C335.107574,684.736938 339.035797,690.331543 343.327209,695.616394 
	C345.521881,698.319153 344.434814,699.326355 342.246094,700.903931 
	C326.599121,712.181702 311.020203,723.553955 295.117676,735.088257 
z"/>
<path fill="#030303" opacity="1.000000" stroke="none" 
	d="
M630.670837,802.249634 
	C635.716858,822.984070 640.465881,843.368958 645.683044,863.633240 
	C646.982605,868.681152 646.077515,870.533203 640.832703,871.192993 
	C635.759888,871.830994 630.787842,873.427795 625.839661,874.842102 
	C622.592407,875.770264 620.922302,875.108948 620.595581,871.483337 
	C620.404907,869.366516 619.559631,867.308777 618.758484,864.276855 
	C613.542480,874.316711 605.464233,879.740479 595.715393,883.266602 
	C591.569031,884.766357 589.940735,883.945312 589.174927,879.638000 
	C588.217224,874.250732 586.781067,868.940552 585.367676,863.646179 
	C584.741089,861.298950 584.730835,859.918030 587.736328,859.727478 
	C589.686340,859.604065 591.622864,858.870300 593.512024,858.247620 
	C606.078064,854.105896 612.099487,844.471497 609.382385,831.620361 
	C606.394348,817.488281 602.830261,803.475403 599.353333,789.451233 
	C598.499084,786.005798 598.564026,784.108582 602.870911,783.424988 
	C608.753906,782.491150 614.541138,780.828064 620.282227,779.174622 
	C623.613953,778.215027 625.255676,778.640015 625.971680,782.462830 
	C627.193054,788.983887 628.991089,795.396973 630.670837,802.249634 
z"/>
<path fill="#FDFDFD" opacity="1.000000" stroke="none" 
	d="
M615.081299,272.987518 
	C602.913330,272.242340 591.935181,268.048004 580.551758,265.769440 
	C578.392456,265.337189 578.685669,263.828033 579.061890,262.308105 
	C584.685669,239.587952 590.343811,216.876205 595.885803,194.136124 
	C596.361450,192.184265 597.148132,191.602875 598.939941,192.103821 
	C608.685791,194.828491 618.755310,196.374817 628.275574,199.897720 
	C646.160217,206.515778 655.589233,222.124588 652.471802,239.671570 
	C648.635132,261.266785 635.990173,272.677032 615.081299,272.987518 
z"/>
<path fill="#FDFDFD" opacity="1.000000" stroke="none" 
	d="
M797.781799,737.521912 
	C791.364319,749.136841 782.598083,753.870178 771.604187,751.930176 
	C760.504578,749.971619 749.666260,738.956543 748.196838,728.141235 
	C746.529907,715.872375 756.972778,702.875061 769.322449,701.848083 
	C788.600037,700.244873 804.060120,719.330811 797.781799,737.521912 
z"/>
<path fill="#FAFAFA" opacity="1.000000" stroke="none" 
	d="
M852.920044,485.922821 
	C850.552490,488.086395 848.274231,489.728363 845.095093,490.751038 
	C841.693848,476.523743 838.330688,462.351105 834.897400,448.195496 
	C834.309387,445.770874 835.717285,445.938446 837.320312,445.874146 
	C847.536072,445.464172 856.971436,453.761658 859.008972,464.947693 
	C860.443481,472.822723 858.833862,479.809479 852.920044,485.922821 
z"/>
<path fill="#FAFAFA" opacity="1.000000" stroke="none" 
	d="
M708.873535,796.867554 
	C711.624512,795.280334 714.046875,793.860168 716.497131,792.423584 
	C721.022949,802.744263 717.827271,813.340881 708.447083,819.788513 
	C698.770447,826.439880 686.682922,825.704041 679.068237,818.238770 
	C676.894592,816.107727 677.548767,815.295471 679.772156,814.007446 
	C689.407104,808.425842 698.961243,802.704834 708.873535,796.867554 
z"/>
<path fill="#FAFAFA" opacity="1.000000" stroke="none" 
	d="
M712.119080,283.895691 
	C708.693237,282.028992 708.956116,280.609924 711.769775,278.607178 
	C720.442383,272.434082 731.870300,273.293762 740.577759,281.021057 
	C749.018372,288.511536 750.874390,299.054108 745.303589,309.069733 
	C734.315857,300.727295 723.363770,292.411865 712.119080,283.895691 
z"/>
<path fill="#FCFCFC" opacity="1.000000" stroke="none" 
	d="
M853.314453,625.051941 
	C852.317993,639.938599 843.925659,649.215332 831.248108,649.918274 
	C816.891541,650.714233 804.089233,641.800476 801.570435,629.254822 
	C798.698425,614.950256 809.855286,601.136230 824.424805,600.957520 
	C840.338318,600.762207 851.967834,610.285217 853.314453,625.051941 
z"/>
<path fill="#FBFBFB" opacity="1.000000" stroke="none" 
	d="
M313.166748,390.952881 
	C312.852905,398.055664 309.995819,403.571747 305.271118,408.082001 
	C301.014404,412.145477 295.990143,412.673187 291.624573,409.895569 
	C287.125549,407.032959 285.776764,402.681122 287.949615,396.774323 
	C290.783173,389.071289 296.033478,382.706696 300.033417,375.645447 
	C300.761688,374.359833 301.519318,374.382050 302.809174,375.036163 
	C309.193359,378.273956 313.526733,382.804291 313.166748,390.952881 
z"/>
<path fill="#FFFFFF" opacity="1.000000" stroke="none" 
	d="
M326.997406,388.995850 
	C326.661407,388.857117 326.492401,388.548157 326.323425,388.239197 
	C326.566223,388.202576 326.809082,388.165955 327.266113,388.298737 
	C327.480286,388.468140 327.164398,388.825592 326.997406,388.995850 
z"/>
<path fill="#FFFFFF" opacity="1.000000" stroke="none" 
	d="
M363.321777,732.328735 
	C362.427673,732.902466 362.427673,732.902466 362.673676,731.971497 
	C362.915771,731.920349 363.189636,732.189453 363.321777,732.328735 
z"/>
</svg>